<?xml version="1.0" encoding="UTF-8" standalone="no"?>
<!-- Created with Inkscape (http://www.inkscape.org/) -->

<svg
   width="229.14284mm"
   height="83.924904mm"
   viewBox="0 0 229.14284 83.924904"
   version="1.1"
   id="svg8"
   inkscape:version="1.2.2 (b0a8486541, 2022-12-01)"
   sodipodi:docname="library_molecule.svg"
   xmlns:inkscape="http://www.inkscape.org/namespaces/inkscape"
   xmlns:sodipodi="http://sodipodi.sourceforge.net/DTD/sodipodi-0.dtd"
   xmlns="http://www.w3.org/2000/svg"
   xmlns:svg="http://www.w3.org/2000/svg"
   xmlns:rdf="http://www.w3.org/1999/02/22-rdf-syntax-ns#"
   xmlns:cc="http://creativecommons.org/ns#"
   xmlns:dc="http://purl.org/dc/elements/1.1/">
  <defs
     id="defs2">
    <clipPath
       id="clipPath905"
       clipPathUnits="userSpaceOnUse">
      <path
         style="clip-rule:evenodd"
         inkscape:connector-curvature="0"
         id="path903"
         d="M 0,0 H 793.6 V 595.2 H 0 Z" />
    </clipPath>
  </defs>
  <sodipodi:namedview
     id="base"
     pagecolor="#ffffff"
     bordercolor="#666666"
     borderopacity="1.0"
     inkscape:pageopacity="0.0"
     inkscape:pageshadow="2"
     inkscape:zoom="0.9605919"
     inkscape:cx="463.77655"
     inkscape:cy="176.97422"
     inkscape:document-units="mm"
     inkscape:current-layer="g1055"
     showgrid="false"
     inkscape:window-width="1920"
     inkscape:window-height="1048"
     inkscape:window-x="0"
     inkscape:window-y="0"
     inkscape:window-maximized="1"
     inkscape:showpageshadow="2"
     inkscape:pagecheckerboard="0"
     inkscape:deskcolor="#d1d1d1" />
  <metadata
     id="metadata5">
    <rdf:RDF>
      <cc:Work
         rdf:about="">
        <dc:format>image/svg+xml</dc:format>
        <dc:type
           rdf:resource="http://purl.org/dc/dcmitype/StillImage" />
      </cc:Work>
    </rdf:RDF>
  </metadata>
  <g
     inkscape:label="Layer 1"
     inkscape:groupmode="layer"
     id="layer1"
     transform="translate(37.618834,-165.08627)">
    <g
       id="g909"
       transform="matrix(0.35277777,0,0,-0.35277777,-62.875077,294.64143)" />
    <g
       id="g911"
       transform="matrix(0.35277777,0,0,-0.35277777,-62.875077,294.64143)" />
    <g
       id="g1446">
      <g
         transform="matrix(0.35277777,0,0,-0.35277777,-62.875077,294.64143)"
         id="g923">
        <path
           inkscape:connector-curvature="0"
           id="path925"
           style="fill:none;stroke:#0000ff;stroke-width:16.98;stroke-linecap:butt;stroke-linejoin:round;stroke-miterlimit:10;stroke-dasharray:none;stroke-opacity:1"
           d="M 270.7,294.7 H 520.2" />
      </g>
      <g
         transform="matrix(0.35277777,0,0,-0.35277777,-62.875077,294.64143)"
         id="g927">
        <path
           inkscape:connector-curvature="0"
           id="path929"
           style="fill:none;stroke:#ff0000;stroke-width:16.98;stroke-linecap:butt;stroke-linejoin:round;stroke-miterlimit:10;stroke-dasharray:none;stroke-opacity:1"
           d="m 520.2,294.7 h 79.3" />
      </g>
      <g
         transform="matrix(0.35277777,0,0,-0.35277777,-62.875077,294.64143)"
         id="g931">
        <path
           inkscape:connector-curvature="0"
           id="path933"
           style="fill:none;stroke:#ff0000;stroke-width:16.98;stroke-linecap:butt;stroke-linejoin:round;stroke-miterlimit:10;stroke-dasharray:none;stroke-opacity:1"
           d="m 644.9,294.7 h 73.7" />
      </g>
      <g
         transform="matrix(0.35277777,0,0,-0.35277777,-62.875077,294.64143)"
         id="g935">
        <text
           id="text939"
           style="font-variant:normal;font-weight:bold;font-size:16px;font-family:'Liberation Sans';-inkscape-font-specification:LiberationSans-Bold;writing-mode:lr-tb;fill:#000000;fill-opacity:1;fill-rule:nonzero;stroke:none"
           transform="matrix(1,0,0,-1,600.9,288.9)"
           y="0"><tspan
             id="tspan937"
             sodipodi:role="line"
             y="0"
             x="0 10.592 21.280001 31.968">XXXX</tspan></text>
      </g>
      <g
         transform="matrix(0.35277777,0,0,-0.35277777,-62.875077,294.64143)"
         id="g941">
        <path
           inkscape:connector-curvature="0"
           id="path943"
           style="fill:none;stroke:#ff0000;stroke-width:16.98;stroke-linecap:butt;stroke-linejoin:round;stroke-miterlimit:10;stroke-dasharray:none;stroke-opacity:1"
           d="m 72.3,294.7 h 79.4" />
      </g>
      <g
         transform="matrix(0.35277777,0,0,-0.35277777,-62.875077,294.64143)"
         id="g945">
        <path
           inkscape:connector-curvature="0"
           id="path947"
           style="fill:none;stroke:#ff0000;stroke-width:16.98;stroke-linecap:butt;stroke-linejoin:round;stroke-miterlimit:10;stroke-dasharray:none;stroke-opacity:1"
           d="m 197,294.7 h 73.7" />
      </g>
      <g
         transform="matrix(0.35277777,0,0,-0.35277777,-62.875077,294.64143)"
         id="g949">
        <text
           id="text953"
           style="font-variant:normal;font-weight:bold;font-size:16px;font-family:'Liberation Sans';-inkscape-font-specification:LiberationSans-Bold;writing-mode:lr-tb;fill:#000000;fill-opacity:1;fill-rule:nonzero;stroke:none"
           transform="matrix(1,0,0,-1,153,288.9)"
           y="0"><tspan
             id="tspan951"
             sodipodi:role="line"
             y="0"
             x="0 10.688 21.375999 31.968">XXXX</tspan></text>
      </g>
      <g
         transform="matrix(0.35277777,0,0,-0.35277777,-62.875077,294.64143)"
         id="g955">
        <path
           inkscape:connector-curvature="0"
           id="path957"
           style="fill:none;stroke:#000000;stroke-width:1.415;stroke-linecap:butt;stroke-linejoin:round;stroke-miterlimit:10;stroke-dasharray:none;stroke-opacity:1"
           d="M 395.4,286.2 H 72.3 v 17 h 646.3 v -17 z" />
      </g>
      <g
         transform="matrix(0.35277777,0,0,-0.35277777,-62.875077,294.64143)"
         id="g959">
        <path
           inkscape:connector-curvature="0"
           id="path961"
           style="fill:none;stroke:#000000;stroke-width:1.415;stroke-linecap:butt;stroke-linejoin:round;stroke-miterlimit:10;stroke-dasharray:none;stroke-opacity:1"
           d="m 276.4,325.9 c 0,8.5 10.1,17 20.3,17 h 203.2 c 10.1,0 20.3,-8.5 20.3,-17" />
      </g>
      <g
         transform="matrix(0.35277777,0,0,-0.35277777,-62.875077,294.64143)"
         id="g963">
        <path
           inkscape:connector-curvature="0"
           id="path965"
           style="fill:none;stroke:#000000;stroke-width:1.415;stroke-linecap:butt;stroke-linejoin:round;stroke-miterlimit:10;stroke-dasharray:none;stroke-opacity:1"
           d="M 276.4,325.9 Z" />
      </g>
      <g
         transform="matrix(0.35277777,0,0,-0.35277777,-62.875077,294.64143)"
         id="g967">
        <path
           inkscape:connector-curvature="0"
           id="path969"
           style="fill:none;stroke:#000000;stroke-width:1.415;stroke-linecap:butt;stroke-linejoin:round;stroke-miterlimit:10;stroke-dasharray:none;stroke-opacity:1"
           d="M 520.2,342.9 Z" />
      </g>
      <g
         transform="matrix(0.35277777,0,0,-0.35277777,-62.875077,294.64143)"
         id="g971">
        <text
           id="text975"
           style="font-variant:normal;font-weight:normal;font-size:18px;font-family:'Liberation Sans';-inkscape-font-specification:LiberationSans;writing-mode:lr-tb;fill:#000000;fill-opacity:1;fill-rule:nonzero;stroke:none"
           transform="matrix(1,0,0,-1,73.7,319.1)"
           y="0"><tspan
             id="tspan973"
             sodipodi:role="line"
             y="0"
             x="0 10.008">5'</tspan></text>
      </g>
      <g
         transform="matrix(0.35277777,0,0,-0.35277777,-62.875077,294.64143)"
         id="g977">
        <text
           id="text981"
           style="font-variant:normal;font-weight:normal;font-size:18px;font-family:'Liberation Sans';-inkscape-font-specification:LiberationSans;writing-mode:lr-tb;fill:#000000;fill-opacity:1;fill-rule:nonzero;stroke:none"
           transform="matrix(1,0,0,-1,708.7,319.1)"
           y="0"><tspan
             id="tspan979"
             sodipodi:role="line"
             y="0"
             x="0 9.8999996">3'</tspan></text>
      </g>
      <g
         transform="matrix(0.35277777,0,0,-0.35277777,-62.875077,294.64143)"
         id="g983">
        <text
           id="text987"
           style="font-style:italic;font-variant:normal;font-size:18px;font-family:'Liberation Sans';-inkscape-font-specification:LiberationSans-Italic;writing-mode:lr-tb;fill:#000000;fill-opacity:1;fill-rule:nonzero;stroke:none"
           transform="matrix(1,0,0,-1,373.5,354.2)"
           y="0"><tspan
             id="tspan985"
             sodipodi:role="line"
             y="0"
             x="0 3.9960001 13.896 22.896 32.903999 38.897999">insert</tspan></text>
      </g>
      <g
         transform="matrix(0.35277777,0,0,-0.35277777,-62.875077,294.64143)"
         id="g989">
        <path
           inkscape:connector-curvature="0"
           id="path991"
           style="fill:none;stroke:#000000;stroke-width:1.415;stroke-linecap:butt;stroke-linejoin:round;stroke-miterlimit:10;stroke-dasharray:none;stroke-opacity:1"
           d="m 151.7,325.9 c 0,8.5 1.8,17.1 3.7,17.1 h 37.8 c 1.9,0 3.8,-8.6 3.8,-17.1" />
      </g>
      <g
         transform="matrix(0.35277777,0,0,-0.35277777,-62.875077,294.64143)"
         id="g993">
        <path
           inkscape:connector-curvature="0"
           id="path995"
           style="fill:none;stroke:#000000;stroke-width:1.415;stroke-linecap:butt;stroke-linejoin:round;stroke-miterlimit:10;stroke-dasharray:none;stroke-opacity:1"
           d="M 151.7,325.9 Z" />
      </g>
      <g
         transform="matrix(0.35277777,0,0,-0.35277777,-62.875077,294.64143)"
         id="g997">
        <path
           inkscape:connector-curvature="0"
           id="path999"
           style="fill:none;stroke:#000000;stroke-width:1.415;stroke-linecap:butt;stroke-linejoin:round;stroke-miterlimit:10;stroke-dasharray:none;stroke-opacity:1"
           d="M 197,343 Z" />
      </g>
      <g
         transform="matrix(0.35277777,0,0,-0.35277777,-62.875077,294.64143)"
         id="g1001">
        <text
           id="text1005"
           style="font-style:italic;font-variant:normal;font-size:18px;font-family:'Liberation Sans';-inkscape-font-specification:LiberationSans-Italic;writing-mode:lr-tb;fill:#000000;fill-opacity:1;fill-rule:nonzero;stroke:none"
           transform="matrix(1,0,0,-1,139.4,354.2)"
           y="0"><tspan
             id="tspan1003"
             sodipodi:role="line"
             y="0"
             x="0 11.988 21.996 26.982 30.978001 40.877998 50.886002 60.785999">P5 index</tspan></text>
      </g>
      <g
         transform="matrix(0.35277777,0,0,-0.35277777,-62.875077,294.64143)"
         id="g1007">
        <path
           inkscape:connector-curvature="0"
           id="path1009"
           style="fill:none;stroke:#000000;stroke-width:1.415;stroke-linecap:butt;stroke-linejoin:round;stroke-miterlimit:10;stroke-dasharray:none;stroke-opacity:1"
           d="m 599.5,325.6 c 0,8.5 1.9,17 3.8,17 h 37.8 c 1.9,0 3.8,-8.5 3.8,-17" />
      </g>
      <g
         transform="matrix(0.35277777,0,0,-0.35277777,-62.875077,294.64143)"
         id="g1011">
        <path
           inkscape:connector-curvature="0"
           id="path1013"
           style="fill:none;stroke:#000000;stroke-width:1.415;stroke-linecap:butt;stroke-linejoin:round;stroke-miterlimit:10;stroke-dasharray:none;stroke-opacity:1"
           d="M 599.5,325.6 Z" />
      </g>
      <g
         transform="matrix(0.35277777,0,0,-0.35277777,-62.875077,294.64143)"
         id="g1015">
        <path
           inkscape:connector-curvature="0"
           id="path1017"
           style="fill:none;stroke:#000000;stroke-width:1.415;stroke-linecap:butt;stroke-linejoin:round;stroke-miterlimit:10;stroke-dasharray:none;stroke-opacity:1"
           d="M 644.9,342.6 Z" />
      </g>
      <g
         transform="matrix(0.35277777,0,0,-0.35277777,-62.875077,294.64143)"
         id="g1019">
        <text
           id="text1023"
           style="font-style:italic;font-variant:normal;font-size:18px;font-family:'Liberation Sans';-inkscape-font-specification:LiberationSans-Italic;writing-mode:lr-tb;fill:#000000;fill-opacity:1;fill-rule:nonzero;stroke:none"
           transform="matrix(1,0,0,-1,587.3,353.9)"
           y="0"><tspan
             id="tspan1021"
             sodipodi:role="line"
             y="0"
             x="0 11.988 21.996 26.982 30.888 40.896 50.903999 60.804001">P7 index</tspan></text>
      </g>
      <g
         transform="matrix(0.35277777,0,0,-0.35277777,-62.875077,294.64143)"
         id="g1025">
        <path
           inkscape:connector-curvature="0"
           id="path1027"
           style="fill:none;stroke:#000000;stroke-width:1.415;stroke-linecap:butt;stroke-linejoin:round;stroke-miterlimit:10;stroke-dasharray:none;stroke-opacity:1"
           d="m 270.7,266.4 c 0,-8.5 -8.2,-17.1 -16.5,-17.1 H 88.8 c -8.3,0 -16.5,8.6 -16.5,17.1" />
      </g>
      <g
         transform="matrix(0.35277777,0,0,-0.35277777,-62.875077,294.64143)"
         id="g1029">
        <path
           inkscape:connector-curvature="0"
           id="path1031"
           style="fill:none;stroke:#000000;stroke-width:1.415;stroke-linecap:butt;stroke-linejoin:round;stroke-miterlimit:10;stroke-dasharray:none;stroke-opacity:1"
           d="M 270.7,266.4 Z" />
      </g>
      <g
         transform="matrix(0.35277777,0,0,-0.35277777,-62.875077,294.64143)"
         id="g1033">
        <path
           inkscape:connector-curvature="0"
           id="path1035"
           style="fill:none;stroke:#000000;stroke-width:1.415;stroke-linecap:butt;stroke-linejoin:round;stroke-miterlimit:10;stroke-dasharray:none;stroke-opacity:1"
           d="M 72.3,249.3 Z" />
      </g>
      <g
         transform="matrix(0.35277777,0,0,-0.35277777,-62.875077,294.64143)"
         id="g1037">
        <text
           id="text1041"
           style="font-style:italic;font-variant:normal;font-size:18px;font-family:'Liberation Sans';-inkscape-font-specification:LiberationSans-Italic;writing-mode:lr-tb;fill:#000000;fill-opacity:1;fill-rule:nonzero;stroke:none"
           transform="matrix(1,0,0,-1,124.8,223.8)"
           y="0"><tspan
             id="tspan1039"
             sodipodi:role="line"
             y="0"
             x="0 11.898 21.906 26.982 36.882 46.889999 56.790001 66.797997 71.783997 81.792">P5 adapter</tspan></text>
      </g>
      <g
         transform="matrix(0.35277777,0,0,-0.35277777,-62.875077,294.64143)"
         id="g1043">
        <path
           inkscape:connector-curvature="0"
           id="path1045"
           style="fill:none;stroke:#000000;stroke-width:1.415;stroke-linecap:butt;stroke-linejoin:round;stroke-miterlimit:10;stroke-dasharray:none;stroke-opacity:1"
           d="m 718.6,266.7 c 0,-8.5 -8.3,-17 -16.5,-17 H 536.7 c -8.3,0 -16.6,8.5 -16.6,17" />
      </g>
      <g
         transform="matrix(0.35277777,0,0,-0.35277777,-62.875077,294.64143)"
         id="g1047">
        <path
           inkscape:connector-curvature="0"
           id="path1049"
           style="fill:none;stroke:#000000;stroke-width:1.415;stroke-linecap:butt;stroke-linejoin:round;stroke-miterlimit:10;stroke-dasharray:none;stroke-opacity:1"
           d="M 718.6,266.7 Z" />
      </g>
      <g
         transform="matrix(0.35277777,0,0,-0.35277777,-62.875077,294.64143)"
         id="g1051">
        <path
           inkscape:connector-curvature="0"
           id="path1053"
           style="fill:none;stroke:#000000;stroke-width:1.415;stroke-linecap:butt;stroke-linejoin:round;stroke-miterlimit:10;stroke-dasharray:none;stroke-opacity:1"
           d="M 520.1,249.7 Z" />
      </g>
      <g
         transform="matrix(0.35277777,0,0,-0.35277777,-62.875077,294.64143)"
         id="g1055">
        <text
           id="text1059"
           style="font-style:italic;font-variant:normal;font-size:18px;font-family:'Liberation Sans';-inkscape-font-specification:LiberationSans-Italic;writing-mode:lr-tb;fill:#000000;fill-opacity:1;fill-rule:nonzero;stroke:none"
           transform="matrix(1,0,0,-1,572.6,224.2)"
           y="0"><tspan
             id="tspan1057"
             sodipodi:role="line"
             y="0"
             x="0 11.988 21.996 26.982 36.990002 46.889999 56.897999 66.905998 71.891998 81.900002">P7 adapter</tspan></text>
        <path
           style="fill:none;stroke:#000000;stroke-width:1.11076;stroke-linecap:butt;stroke-linejoin:round;stroke-miterlimit:10;stroke-dasharray:none;stroke-opacity:1"
           d="m 520.10658,199.8207 h -0.0529 v -1.75178 l -0.10991,-1.52961 -0.10779,-1.75178 -0.21559,-1.52961 -0.27053,-1.75178 -0.27054,-1.52961 -0.37832,-1.52961 -0.38044,-1.52961 -0.4861,-1.5296 -0.48612,-1.53815 -0.59602,-1.52961 -0.59603,-1.30744 -0.64885,-1.31596 -0.70383,-1.31597 -1.51331,-2.18759 -0.8116,-1.0938 -0.86656,-1.0938 -0.86656,-0.87163 -0.9194,-0.87162 -0.9194,-0.88016 -0.97435,-0.65798 -0.97435,-0.64945 -1.02719,-0.65799 -1.02719,-0.43581 -1.0293,-0.44434 -1.08214,-0.21374 -1.0272,-0.22217 -1.08214,-0.21372 c -91.32151,0.12534 -116.74872,-9e-5 -207.01472,-9e-5 l -1.08214,0.21372 -1.0272,0.22218 -1.08214,0.21372 -1.0293,0.44435 -1.02719,0.43581 -1.0272,0.65799 -0.97434,0.64945 -0.97435,0.65798 -0.9194,0.88016 -0.9194,0.87162 -0.86656,0.87164 -0.86656,0.88015 -0.8116,1.30744 -1.51332,2.18759 -0.70381,1.31596 -0.64887,1.31598 -0.59602,1.30744 -0.59602,1.5296 -0.48612,1.53814 -0.48612,1.30744 -0.38044,1.52962 -0.37833,1.53813 -0.32337,1.74325 -0.2177,1.53814 -0.21558,1.74325 -0.10779,1.53814 -0.10991,1.74325 -0.0529,1.75178"
           id="path594"
           sodipodi:nodetypes="ccccccccccccccccccccccccccccccccccccccccccccccccccccccccccc" />
        <path
           style="fill:none;stroke:#000000;stroke-width:0.7358;stroke-linecap:butt;stroke-linejoin:round;stroke-miterlimit:10;stroke-opacity:1"
           d="m 160.65211,129.34559 z m 0,0"
           id="path596" />
        <path
           style="fill:none;stroke:#000000;stroke-width:0.7358;stroke-linecap:butt;stroke-linejoin:round;stroke-miterlimit:10;stroke-opacity:1"
           d="m 615.05055,158.54481 z m 0,0"
           id="path598" />
        <text
           id="text1059-4"
           style="font-style:italic;font-variant:normal;font-size:18px;font-family:'Liberation Sans';-inkscape-font-specification:LiberationSans-Italic;writing-mode:lr-tb;fill:#000000;fill-opacity:1;fill-rule:nonzero;stroke:none"
           y="-142.21577"
           x="286.93549"
           transform="scale(1,-1)"><tspan
             id="tspan1057-4"
             sodipodi:role="line"
             x="286.93549"
             y="-142.21577">min. molecule length 30bp</tspan></text>
      </g>
    </g>
  </g>
</svg>
